Coordinates
version=1
nRows=10
nColumns=27
inDegrees=yes

Units are S.I. units (second, meters, Newtons, ...)
If the header above contains a line with 'inDegrees', this indicates whether rotational values are in degrees (yes) or radians (no).

endheader
time	pelvis_rotation	pelvis_tilt	pelvis_list	pelvis_tx	pelvis_ty	pelvis_tz	hip_flexion_r	hip_adduction_r	hip_rotation_r	knee_angle_r	knee_rotation_r	knee_adduction_r	knee_angle_r_beta	ankle_angle_r	subtalar_angle_r	mtp_angle_r	hip_flexion_l	hip_adduction_l	hip_rotation_l	knee_angle_l	knee_rotation_l	knee_adduction_l	knee_angle_l_beta	ankle_angle_l	subtalar_angle_l	mtp_angle_l
      5.39500000	      3.52902378	    -28.92616701	      5.10128118	     -0.03759324	      0.47717768	     -1.16039533	    124.29297903	    -40.63708448	     16.96518906	    105.52363324	     -9.74944380	      9.91791741	      1.84173484	     14.58239726	      0.25254282	      0.00000000	    116.52922080	    -33.80765175	      8.24199733	     99.54755152	     -9.48991769	     -9.93147857	      1.73743254	     14.64646621	     12.93725883	      0.00000000
      5.40000000	      3.62457491	    -29.12278378	      5.04577198	     -0.03857349	      0.47908649	     -1.16046668	    124.18426819	    -40.74959455	     16.66089777	    105.23641024	     -9.74025873	      9.91723121	      1.83672185	     14.38848921	      0.23260069	      0.00000000	    116.52245720	    -33.56130653	      8.16813969	     99.26621324	     -9.45044904	     -9.93087349	      1.73252226	     14.44534963	     12.77833896	      0.00000000
      5.40500000	      3.37187588	    -29.28540664	      5.15853731	     -0.03962751	      0.48092624	     -1.16041020	    124.12265522	    -40.28550194	     16.52406221	    104.97368696	     -9.72911741	      9.91632935	      1.83213647	     14.20492520	      0.09948598	      0.00000000	    116.31590215	    -33.84312389	      7.85863401	     98.96977810	     -9.41765024	     -9.93046420	      1.72734849	     14.30246451	     12.69506328	      0.00000000
      5.41000000	      3.45757077	    -29.43665623	      5.17057870	     -0.04061638	      0.48284194	     -1.16048558	    124.03277611	    -40.35091014	     16.30356864	    104.69284479	     -9.71686985	      9.91550510	      1.82723484	     14.05371571	      0.04793808	      0.00000000	    116.21001223	    -33.64680176	      7.69580716	     98.68056793	     -9.36432297	     -9.92984755	      1.72230082	     14.12895574	     12.44467678	      0.00000000
      5.41500000	      3.56231513	    -29.55081434	      5.20068723	     -0.04157814	      0.48480223	     -1.16055714	    123.91902087	    -40.43377527	     16.11256187	    104.40690526	     -9.70408682	      9.91460975	      1.82224426	     13.89245551	      0.05304678	      0.00000000	    116.03900412	    -33.43028561	      7.51421573	     98.37724755	     -9.31049378	     -9.92924615	      1.71700688	     13.95844494	     12.23147335	      0.00000000
      5.42000000	      3.44205876	    -29.70912317	      5.16886410	     -0.04262682	      0.48682582	     -1.16056943	    123.72845053	    -40.25876295	     15.79545273	    104.09723973	     -9.68992033	      9.91358886	      1.81683958	     13.70092219	     -0.04316269	      0.00000000	    115.93009340	    -33.46084514	      7.39467735	     98.07374537	     -9.24772789	     -9.92865545	      1.71170977	     13.78867322	     12.07426354	      0.00000000
      5.42500000	      3.72980818	    -29.85403334	      5.17047700	     -0.04362702	      0.48887688	     -1.16068856	    123.63528013	    -40.58591359	     15.57543612	    103.79174479	     -9.67596628	      9.91284277	      1.81150768	     13.54576959	     -0.00199313	      0.00000000	    115.83022250	    -33.00279801	      7.27810565	     97.75522726	     -9.17089682	     -9.92803631	      1.70615058	     13.58637698	     11.76410314	      0.00000000
      5.43000000	      3.55094550	    -30.02616171	      5.15839530	     -0.04472932	      0.49093732	     -1.16065063	    123.46376292	    -40.31567294	     15.27367447	    103.48054274	     -9.65774130	      9.91168018	      1.80607618	     13.35307099	     -0.12460976	      0.00000000	    115.70394782	    -33.11240508	      7.15081277	     97.43535214	     -9.08763629	     -9.92732554	      1.70056770	     13.41523501	     11.62490982	      0.00000000
      5.43500000	      3.48059143	    -30.17892155	      5.16414676	     -0.04582265	      0.49304520	     -1.16064529	    123.30090505	    -40.17683898	     15.01180282	    103.16056732	     -9.63712440	      9.91061981	      1.80049156	     13.17032600	     -0.19541517	      0.00000000	    115.55041642	    -33.10061453	      7.00924291	     97.10499625	     -8.99106471	     -9.92678211	      1.69480190	     13.24360671	     11.44322968	      0.00000000
      5.44000000	      3.70465389	    -30.31749372	      5.15668202	     -0.04685939	      0.49518485	     -1.16072133	    123.16027015	    -40.43255430	     14.75802885	    102.83707444	     -9.61653540	      9.90960267	      1.79484554	     13.03497553	     -0.13960305	      0.00000000	    115.42974496	    -32.71581498	      6.93620352	     96.76829200	     -8.87334384	     -9.92614170	      1.68892531	     13.04761261	     11.15041391	      0.00000000
